<!DOCTYPE svg PUBLIC "-//W3C//DTD SVG 20010904//EN" "http://www.w3.org/TR/2001/REC-SVG-20010904/DTD/svg10.dtd">
<svg version="1.0" xmlns="http://www.w3.org/2000/svg" width="794px" height="845px" viewBox="0 0 7940 8450" preserveAspectRatio="xMidYMid meet">
<g id="layer101" fill="#000000" stroke="none">
 <path d="M0 4225 l0 -4225 3970 0 3970 0 0 4225 0 4225 -3970 0 -3970 0 0 -4225z"/>
 </g>
<g id="layer102" fill="#ffffff" stroke="none">
 <path d="M875 7681 c141 -38 157 -47 172 -101 61 -210 51 -665 -15 -687 -204 -67 -339 -274 -359 -553 -5 -76 9 -322 23 -393 l6 -27 421 2 422 3 7 50 c16 115 21 381 9 451 -27 152 -73 253 -156 343 -52 56 -155 121 -192 121 -32 0 -63 158 -63 318 0 123 19 277 46 373 15 53 20 59 58 75 22 9 79 24 126 34 l85 19 -345 0 -345 -1 100 -27z"/>
 <path d="M2805 7699 c94 -22 115 -30 115 -45 0 -8 11 -19 25 -24 16 -6 23 -15 19 -24 -3 -8 3 -19 14 -25 28 -15 47 -125 29 -164 -6 -15 -18 -27 -24 -27 -18 0 -16 -29 2 -36 8 -4 15 -12 15 -20 0 -8 5 -14 10 -14 6 0 10 -20 10 -43 0 -34 -18 -82 -84 -218 -46 -96 -104 -222 -129 -281 -25 -58 -62 -138 -81 -176 -19 -38 -32 -72 -29 -76 8 -8 708 -8 716 0 3 3 -14 47 -38 98 -24 50 -62 135 -85 190 -23 54 -77 173 -121 263 -86 180 -96 226 -59 263 11 11 20 25 20 30 0 6 -9 19 -20 30 -11 11 -20 30 -20 43 0 37 27 131 39 135 6 2 11 15 11 28 0 18 5 24 21 24 12 0 23 8 26 20 5 19 22 26 118 49 28 6 -49 9 -250 9 -201 0 -278 -3 -250 -9z"/>
 <path d="M4699 7679 c47 -12 79 -26 88 -39 8 -11 21 -20 29 -20 8 0 14 -10 14 -23 0 -12 8 -27 19 -34 14 -9 22 -33 31 -99 12 -86 9 -252 -5 -287 -4 -9 -26 -25 -49 -35 -22 -11 -59 -39 -82 -64 -87 -94 -97 -207 -30 -333 22 -42 36 -82 36 -104 0 -34 -23 -234 -35 -308 l-6 -33 211 0 212 0 -6 28 c-15 74 -37 309 -32 335 3 16 22 62 42 102 33 67 36 79 32 142 -7 110 -62 194 -154 235 -37 16 -45 25 -55 61 -26 94 -7 348 27 361 8 3 14 15 14 26 0 11 8 23 18 27 9 3 24 14 32 24 8 10 49 27 90 38 l75 19 -295 0 -295 0 74 -19z"/>
 <path d="M6401 7696 c2 -2 50 -13 107 -25 56 -12 130 -32 165 -45 l62 -24 7 -143 c9 -198 -2 -650 -16 -654 -6 -1 -37 -8 -68 -15 -71 -14 -112 -50 -127 -111 -20 -77 -33 -92 -114 -124 -151 -61 -231 -118 -277 -198 -28 -49 -30 -59 -30 -159 l0 -108 690 0 690 0 0 103 c0 122 -16 164 -84 230 -47 47 -171 116 -244 138 -51 15 -92 59 -92 98 0 36 -36 90 -77 113 -17 10 -54 21 -81 25 l-50 6 -9 86 c-10 110 -8 587 3 666 l9 60 80 27 c44 15 116 33 160 41 76 14 61 15 -314 16 -217 1 -392 -1 -390 -3z"/>
 <path d="M2686 5119 c50 -10 126 -31 170 -46 l79 -28 8 -90 c5 -49 6 -260 4 -467 l-4 -378 -139 -146 c-342 -362 -436 -466 -445 -496 -11 -39 4 -101 32 -129 18 -18 38 -19 608 -19 324 0 597 3 606 6 26 10 45 59 45 115 l0 52 -98 101 c-54 56 -179 189 -277 296 -98 107 -186 203 -196 212 -13 13 -18 44 -25 140 -16 263 -2 784 23 809 18 18 160 61 242 74 80 12 56 13 -319 13 l-405 1 91 -20z"/>
 <path d="M855 5015 c6 -2 49 -15 97 -29 98 -30 108 -40 108 -113 0 -85 -3 -88 -84 -102 -193 -32 -300 -142 -323 -329 -13 -111 34 -271 141 -482 l64 -125 264 -3 264 -2 76 157 c91 187 118 269 125 381 10 145 -39 268 -131 331 -55 38 -140 69 -213 77 -49 6 -53 9 -64 41 -12 38 -5 112 14 135 15 19 87 46 152 57 33 6 -44 9 -225 9 -151 0 -270 -1 -265 -3z"/>
 <path d="M4665 4991 c137 -38 191 -63 198 -93 28 -112 37 -549 13 -650 -10 -45 -22 -67 -54 -98 -86 -83 -158 -288 -181 -514 -6 -60 -11 -255 -11 -433 l0 -323 290 0 290 0 0 344 c0 378 -11 506 -55 662 -35 121 -79 209 -133 263 -57 57 -70 105 -79 296 -6 140 6 308 30 430 l12 60 60 24 c33 13 98 32 145 42 l85 18 -355 0 -355 0 100 -28z"/>
 <path d="M6422 5008 c-9 -9 -12 -135 -12 -505 l0 -493 390 0 390 0 0 493 c0 370 -3 496 -12 505 -17 17 -739 17 -756 0z"/>
 <path d="M865 1970 c11 -4 54 -19 95 -32 69 -21 76 -26 87 -58 15 -43 16 -192 3 -241 -9 -30 -18 -39 -55 -53 -55 -21 -137 -94 -170 -150 -49 -84 -52 -217 -10 -401 42 -185 45 -455 7 -587 -10 -37 -17 -70 -14 -73 6 -5 632 -7 632 -2 0 2 -9 39 -21 83 -40 156 -35 375 13 588 15 62 22 128 22 206 1 103 -2 120 -23 165 -35 69 -101 132 -176 166 l-63 29 -12 57 c-14 68 -8 163 15 220 17 42 21 44 165 82 24 6 -54 9 -240 9 -157 1 -266 -3 -255 -8z"/>
 <path d="M2746 1964 c-14 -14 -16 -101 -16 -815 l0 -799 330 0 330 0 0 795 c0 782 0 795 -20 815 -19 19 -33 20 -314 20 -254 0 -297 -2 -310 -16z"/>
 <path d="M4637 1962 c-16 -17 -17 -93 -17 -890 l0 -872 300 0 300 0 0 874 c0 782 -2 876 -16 890 -13 14 -53 16 -283 16 -247 0 -269 -1 -284 -18z"/>
 <path d="M6406 1972 c5 -5 56 -19 114 -31 58 -13 130 -33 160 -45 l55 -22 9 -212 c5 -120 5 -321 0 -464 l-9 -251 -170 -134 c-93 -74 -230 -184 -304 -246 -74 -62 -159 -132 -190 -157 l-56 -45 392 -3 c216 -1 569 -1 785 0 l392 3 -165 136 c-194 160 -465 378 -519 417 -38 27 -39 28 -47 112 -10 108 -8 658 3 770 l9 85 95 32 c52 18 125 35 163 39 161 16 53 24 -324 24 -222 0 -399 -4 -393 -8z"/>
 </g>

</svg>